<svg width="24" height="22" viewBox="0 0 24 22" fill="none" xmlns="http://www.w3.org/2000/svg">
<path d="M22.3125 0.921875H1.6875C1.25238 0.921875 0.83508 1.09473 0.527403 1.4024C0.219726 1.71008 0.046875 2.12738 0.046875 2.5625V19.4375C0.046875 19.8726 0.219726 20.2899 0.527403 20.5976C0.83508 20.9053 1.25238 21.0781 1.6875 21.0781H3.25781C3.39009 21.078 3.51964 21.0405 3.63158 20.97C3.74352 20.8995 3.8333 20.7989 3.89062 20.6797C4.36517 19.6763 5.11495 18.8283 6.05269 18.2345C6.99043 17.6407 8.07755 17.3254 9.1875 17.3254C10.2975 17.3254 11.3846 17.6407 12.3223 18.2345C13.2601 18.8283 14.0098 19.6763 14.4844 20.6797C14.5417 20.7989 14.6315 20.8995 14.7434 20.97C14.8554 21.0405 14.9849 21.078 15.1172 21.0781H22.3125C22.7476 21.0781 23.1649 20.9053 23.4726 20.5976C23.7803 20.2899 23.9531 19.8726 23.9531 19.4375V2.5625C23.9531 2.12738 23.7803 1.71008 23.4726 1.4024C23.1649 1.09473 22.7476 0.921875 22.3125 0.921875ZM6.14062 12.875C6.14062 12.2724 6.31932 11.6833 6.65412 11.1822C6.98891 10.6812 7.46477 10.2907 8.02151 10.0601C8.57825 9.82944 9.19088 9.7691 9.78192 9.88667C10.373 10.0042 10.9159 10.2944 11.342 10.7205C11.7681 11.1466 12.0583 11.6895 12.1758 12.2806C12.2934 12.8716 12.2331 13.4842 12.0024 14.041C11.7718 14.5977 11.3813 15.0736 10.8803 15.4084C10.3792 15.7432 9.79012 15.9219 9.1875 15.9219C8.38037 15.9188 7.60718 15.5968 7.03644 15.0261C6.46571 14.4553 6.14371 13.6821 6.14062 12.875ZM22.5469 19.4375C22.5469 19.4997 22.5222 19.5593 22.4782 19.6032C22.4343 19.6472 22.3747 19.6719 22.3125 19.6719H15.5508C14.7304 18.2001 13.4262 17.0573 11.8594 16.4375C12.6071 15.8767 13.1594 15.0949 13.4381 14.2028C13.7167 13.3107 13.7077 12.3535 13.4121 11.4668C13.1165 10.5801 12.5495 9.80893 11.7913 9.26244C11.0331 8.71595 10.1221 8.42188 9.1875 8.42188C8.25287 8.42188 7.34193 8.71595 6.58371 9.26244C5.8255 9.80893 5.25845 10.5801 4.96289 11.4668C4.66734 12.3535 4.65825 13.3107 4.93693 14.2028C5.21561 15.0949 5.76792 15.8767 6.51562 16.4375C4.94878 17.0573 3.64458 18.2001 2.82422 19.6719H1.6875C1.62626 19.669 1.56829 19.6434 1.52494 19.6001C1.48159 19.5567 1.45598 19.4987 1.45312 19.4375V2.5625C1.45312 2.50034 1.47782 2.44073 1.52177 2.39677C1.56573 2.35282 1.62534 2.32812 1.6875 2.32812H22.3125C22.3747 2.32812 22.4343 2.35282 22.4782 2.39677C22.5222 2.44073 22.5469 2.50034 22.5469 2.5625V19.4375ZM20.2031 5.375V16.625C20.2031 16.8115 20.129 16.9903 19.9972 17.1222C19.8653 17.254 19.6865 17.3281 19.5 17.3281H17.625C17.4385 17.3281 17.2597 17.254 17.1278 17.1222C16.996 16.9903 16.9219 16.8115 16.9219 16.625C16.9219 16.4385 16.996 16.2597 17.1278 16.1278C17.2597 15.996 17.4385 15.9219 17.625 15.9219H18.7969V6.07812H5.20312V7.25C5.20312 7.43648 5.12905 7.61532 4.99718 7.74718C4.86532 7.87905 4.68648 7.95312 4.5 7.95312C4.31352 7.95312 4.13468 7.87905 4.00282 7.74718C3.87095 7.61532 3.79688 7.43648 3.79688 7.25V5.375C3.79688 5.18852 3.87095 5.00968 4.00282 4.87782C4.13468 4.74595 4.31352 4.67188 4.5 4.67188H19.5C19.6865 4.67188 19.8653 4.74595 19.9972 4.87782C20.129 5.00968 20.2031 5.18852 20.2031 5.375Z" fill="white"/>
</svg>
